<?xml version="1.0" encoding="utf-8"?>
<!-- Generator: Adobe Illustrator 18.0.0, SVG Export Plug-In . SVG Version: 6.00 Build 0)  -->
<!DOCTYPE svg PUBLIC "-//W3C//DTD SVG 1.1//EN" "http://www.w3.org/Graphics/SVG/1.1/DTD/svg11.dtd">
<svg version="1.1" id="Layer_1" xmlns="http://www.w3.org/2000/svg" xmlns:xlink="http://www.w3.org/1999/xlink" x="0px" y="0px"
	 viewBox="0 0 612 792" enable-background="new 0 0 612 792" xml:space="preserve">
<g>
	<path d="M599.3,621.6H12.7C5.6,621.6,0,616,0,608.9V223.8c0-7.1,5.6-12.7,12.7-12.7H153c2.7,0,4.9,2.2,4.9,4.9
		c0,2.7-2.2,4.9-4.9,4.9H12.7c-1.7,0-2.9,1.1-2.9,2.9v385.1c0,1.7,1.1,2.9,2.9,2.9h586.6c1.7,0,2.9-1.1,2.9-2.9V223.2
		c0-1.7-1.1-2.9-2.9-2.9h-40.1c-2.7,0-4.9-2.2-4.9-4.9v-35.2h-75.9v35.2c0,2.7-2.2,4.9-4.9,4.9H305.4c-2.7,0-4.9-2.2-4.9-4.9
		c0-2.7,2.2-4.9,4.9-4.9h163.2v-35.2c0-2.7,2.2-4.9,4.9-4.9h85.7c2.7,0,4.9,2.2,4.9,4.9v35.2h35.2c7.1,0,12.7,5.6,12.7,12.7v385.7
		C612,616,606.4,621.6,599.3,621.6z"/>
	<path d="M306,620.5c-112.6,0-204.2-91.8-204.2-204.7S193.4,211,306,211c2.7,0,4.9,2.2,4.9,4.9c0,2.7-2.2,4.9-4.9,4.9
		c-107.2,0-194.3,87.4-194.3,194.9c0,107.5,87.2,194.9,194.3,194.9c41.6,0,81.8-13.3,116.2-38.6c2.2-1.6,5.3-1.1,6.9,1.1
		c1.6,2.2,1.1,5.3-1.1,6.9C391.9,606.5,349.7,620.5,306,620.5z"/>
	<path d="M424.5,581c-1.5,0-3-0.7-4-2c-1.6-2.2-1.1-5.3,1-6.9c49.3-36.4,78.7-94.8,78.7-156.3c0-53.9-21.2-103.8-59.7-140.6
		c-2-1.9-2-5-0.2-6.9c1.9-2,5-2,6.9-0.2c40.5,38.7,62.7,91.1,62.7,147.7c0,64.6-30.9,126-82.7,164.2
		C426.6,580.6,425.6,581,424.5,581z"/>
</g>
</svg>
