<?xml version="1.0" encoding="utf-8"?>
<!-- Generator: Adobe Illustrator 18.0.0, SVG Export Plug-In . SVG Version: 6.00 Build 0)  -->
<!DOCTYPE svg PUBLIC "-//W3C//DTD SVG 1.1//EN" "http://www.w3.org/Graphics/SVG/1.1/DTD/svg11.dtd">
<svg version="1.1" id="Layer_1" xmlns="http://www.w3.org/2000/svg" xmlns:xlink="http://www.w3.org/1999/xlink" x="0px" y="0px"
	 viewBox="0 0 612 792" enable-background="new 0 0 612 792" xml:space="preserve">
<path d="M409.7,792H96.5c-39.1,0-71-31.8-71-71V71c0-39.1,31.8-71,71-71h419.1c39.1,0,71,31.8,71,71v523.5
	c0,21.9-18.1,30.8-27.7,32.4c-0.4,0.1-0.7,0.1-1.1,0.1h-83.7c-31.9,0-57.9,26-57.9,57.9v26.7c0,3.6-2.9,6.5-6.5,6.5
	c-3.6,0-6.5-2.9-6.5-6.5v-26.7c0-39.1,31.8-71,71-71h83c3-0.6,16.3-4.4,16.3-19.4V71c0-31.9-26-57.9-57.9-57.9H96.5
	c-31.9,0-57.9,26-57.9,57.9V721c0,31.9,26,57.9,57.9,57.9h311l141.2-106.8c2.9-2.2,7-1.6,9.2,1.3c2.2,2.9,1.6,7-1.3,9.2L413.6,790.7
	C412.5,791.5,411.1,792,409.7,792z"/>
</svg>
