<?xml version="1.0" encoding="utf-8"?>
<!-- Generator: Adobe Illustrator 18.0.0, SVG Export Plug-In . SVG Version: 6.00 Build 0)  -->
<!DOCTYPE svg PUBLIC "-//W3C//DTD SVG 1.1//EN" "http://www.w3.org/Graphics/SVG/1.1/DTD/svg11.dtd">
<svg version="1.1" id="Layer_1" xmlns="http://www.w3.org/2000/svg" xmlns:xlink="http://www.w3.org/1999/xlink" x="0px" y="0px"
	 viewBox="0 0 612 792" enable-background="new 0 0 612 792" xml:space="preserve">
<path d="M558.3,610.6H53.7C24.1,610.6,0,586.5,0,556.9V235.1c0-16,4.5-26.2,13.5-30.3c19.1-8.9,49.5,15.7,53.9,19.3l238.3,165.3
	l211.6-147.1c2.4-1.7,5.8-1.1,7.5,1.4c1.7,2.4,1.1,5.8-1.4,7.5L308.8,400.4c-1.8,1.3-4.3,1.3-6.2,0L61,232.9
	c-0.1-0.1-0.3-0.2-0.4-0.3C49.5,223.1,28,210,18.1,214.6c-6,2.8-7.3,12.7-7.3,20.5v321.7c0,23.7,19.3,42.9,42.9,42.9h504.6
	c23.7,0,42.9-19.3,42.9-42.9V235.1c0-23.7-19.3-42.9-42.9-42.9H124.7c-3,0-5.4-2.4-5.4-5.4s2.4-5.4,5.4-5.4h433.6
	c29.6,0,53.7,24.1,53.7,53.7v321.7C612,586.5,587.9,610.6,558.3,610.6z"/>
</svg>
