<?xml version="1.0" encoding="utf-8"?>
<!-- Generator: Adobe Illustrator 18.0.0, SVG Export Plug-In . SVG Version: 6.00 Build 0)  -->
<!DOCTYPE svg PUBLIC "-//W3C//DTD SVG 1.1//EN" "http://www.w3.org/Graphics/SVG/1.1/DTD/svg11.dtd">
<svg version="1.1" id="Layer_1" xmlns="http://www.w3.org/2000/svg" xmlns:xlink="http://www.w3.org/1999/xlink" x="0px" y="0px"
	 viewBox="0 0 612 792" enable-background="new 0 0 612 792" xml:space="preserve">
<g>
	<path d="M305.1,792c-1.2,0-2.5-0.3-3.6-1c-3.2-2-4.2-6.2-2.2-9.4c12.5-20.1,25.4-40.7,37.9-60.5C413,600.7,491.3,476.2,540,342.8
		c8.6-23.1,14.2-47.9,16.6-73.8l2.3-23.7c1.9-49.8-9.6-97.1-32.3-133.3C501.4,72,463,46,415.6,36.6c-51.3-9.9-104.5,4.1-146,38.3
		c-41.6,34.4-65.5,84.2-65.5,136.9c0,3.8-3,6.8-6.8,6.8c-3.8,0-6.8-3-6.8-6.8c0-56.7,25.7-110.4,70.4-147.4
		c44.7-36.9,102-51.9,157.3-41.2c51.3,10.1,92.7,38.3,119.9,81.5c24.2,38.5,36.4,88.7,34.4,141.3c0,0.1,0,0.3,0,0.4l-2.3,23.9
		c-2.5,27.1-8.3,53.1-17.4,77.3c-49.1,134.7-127.8,259.8-203.9,380.8c-12.5,19.9-25.4,40.4-37.9,60.5
		C309.6,790.9,307.4,792,305.1,792z"/>
	<path d="M305.1,792c-2.3,0-4.5-1.1-5.8-3.2c-12.5-20.1-25.4-40.6-37.9-60.5c-76.1-121-154.9-246.1-204-380.9
		C33,280.7,33.3,208.8,58.3,145.2C84,79.8,134,28.4,199.2,0.5c3.5-1.5,7.5,0.1,8.9,3.6c1.5,3.5-0.1,7.4-3.6,8.9
		C78.8,66.8,21.1,208.6,70.3,342.8C118.9,476.2,197.2,600.7,273,721.1c12.5,19.9,25.4,40.4,37.9,60.5c2,3.2,1,7.4-2.2,9.4
		C307.6,791.7,306.3,792,305.1,792z"/>
	<path d="M305.1,325c-62.8,0-113.9-51.1-113.9-113.9c0-3.8,3-6.8,6.8-6.8c3.8,0,6.8,3,6.8,6.8c0,55.3,45,100.3,100.3,100.3
		s100.3-45,100.3-100.3c0-26.9-11-52.9-30.3-71.4c-2.7-2.6-2.8-6.9-0.2-9.6c2.6-2.7,6.9-2.8,9.6-0.2c21.9,21.1,34.5,50.7,34.5,81.2
		C419,273.9,367.9,325,305.1,325z"/>
</g>
</svg>
