<?xml version="1.0" encoding="utf-8"?>
<!-- Generator: Adobe Illustrator 18.0.0, SVG Export Plug-In . SVG Version: 6.00 Build 0)  -->
<!DOCTYPE svg PUBLIC "-//W3C//DTD SVG 1.1//EN" "http://www.w3.org/Graphics/SVG/1.1/DTD/svg11.dtd">
<svg version="1.1" id="Layer_1" xmlns="http://www.w3.org/2000/svg" xmlns:xlink="http://www.w3.org/1999/xlink" x="0px" y="0px"
	 viewBox="0 0 612 792" enable-background="new 0 0 612 792" xml:space="preserve">
<path d="M236.2,701.6c-1.6,0-3.2-0.7-4.3-2L128.8,572.8L2,469.7c-1.2-1-1.9-2.4-2-4c-0.1-1.6,0.5-3.1,1.6-4.2l11.8-11.8
	c1.6-1.6,4-2,6-1.2l108.2,45.3L251,370.5L38.3,204.2c-1.2-1-2-2.4-2.1-4c-0.1-1.6,0.5-3.1,1.6-4.2l30.5-30.5c1.6-1.6,3.9-2,6-1.2
	L346.5,275l127.7-127.7c37.7-37.7,70.8-56.9,98.2-56.9c0.5,0,1,0,1.5,0c17.2,0.4,25.9,8.8,27.2,10.1c7.3,7.3,11,16.6,10.9,27.6
	c-0.2,42-55.4,96.9-57.8,99.2L426.6,355.1l110.8,272.2c0.8,2,0.4,4.4-1.2,6l-30.5,30.5c-1.1,1.1-2.6,1.7-4.2,1.6
	c-1.6-0.1-3-0.9-4-2.1L331.1,450.6L218.2,563.4c-2.1,2.1-5.6,2.1-7.8,0c-2.1-2.1-2.1-5.6,0-7.8l117.2-117.2c1.1-1.1,2.6-1.7,4.2-1.6
	c1.6,0.1,3,0.9,4,2.1l166.4,212.7l23.6-23.6L415,355.9c-0.8-2.1-0.4-4.4,1.2-6l130.3-130.3c0.6-0.6,54.4-54,54.5-91.4
	c0-8.1-2.5-14.6-7.7-19.8c-0.1-0.1-0.1-0.1-0.2-0.2c-0.2-0.2-6.4-6.5-20.1-6.7c-16.8-0.1-46.3,8.9-91,53.6L351.7,285.4
	c-1.6,1.6-3.9,2-6,1.2L73.5,175.7l-23.6,23.6l212.7,166.4c1.2,1,2,2.4,2.1,4c0.1,1.6-0.5,3.1-1.6,4.2L132.8,504.2
	c-1.6,1.6-4,2-6,1.2L18.6,460.1l-4.9,4.9l122.5,99.6c0.3,0.2,0.6,0.5,0.8,0.8l103.5,127.2c1.9,2.4,1.6,5.8-0.8,7.7
	C238.6,701.2,237.4,701.6,236.2,701.6z"/>
</svg>
