<?xml version="1.0" encoding="utf-8"?>
<!-- Generator: Adobe Illustrator 18.0.0, SVG Export Plug-In . SVG Version: 6.00 Build 0)  -->
<!DOCTYPE svg PUBLIC "-//W3C//DTD SVG 1.1//EN" "http://www.w3.org/Graphics/SVG/1.1/DTD/svg11.dtd">
<svg version="1.1" id="Layer_1" xmlns="http://www.w3.org/2000/svg" xmlns:xlink="http://www.w3.org/1999/xlink" x="0px" y="0px"
	 viewBox="0 0 612 792" enable-background="new 0 0 612 792" xml:space="preserve">
<path d="M279.5,732.6c-5.9,0-12-2.3-18-8.3c-12.6-13.4-12.6-36.5-12.6-51.7V565.8H6.2c-3.5,0-6.3-2.8-6.3-6.3s2.8-6.3,6.3-6.3h249.1
	c3.5,0,6.3,2.8,6.3,6.3v113.1c0,13.3,0,33.3,9,42.9c9,9,18.2,3.4,34.2-11.6c1.8-1.6,3.4-3.2,5-4.6c22.9-20.1,44.9-42.2,66.2-63.6
	c16.5-16.6,33.6-33.8,51.1-50.1c37.4-35.6,74.1-73,109.6-109.2c7.3-7.4,14.6-14.8,21.9-22.3l3.9-3.9c19-18.9,36.9-36.7,36.9-55.6
	c0-10.9-5.8-22-17.8-34c-17.2-17.2-34.5-34.8-51.3-51.9c-33.4-34-68-69.2-103.2-102.6c-14.6-14.1-29-28.6-42.9-42.6
	c-23.6-23.9-48-48.5-73.6-71c-1.8-1.5-3.8-3.3-6-5.2c-16.2-14.6-24.8-19.7-33.3-10.9c-9,9-9,30.2-9,42.9v113.1
	c0,3.5-2.8,6.3-6.3,6.3H6.2c-3.5,0-6.3-2.8-6.3-6.3s2.8-6.3,6.3-6.3h243.5V119.4c0-15.6,0-39.1,12.6-51.7
	c18.2-19,38.6-0.6,50.8,10.3c2,1.8,3.9,3.6,5.7,5c26,22.8,50.6,47.7,74.4,71.7c13.8,14,28.2,28.5,42.6,42.4
	c35.3,33.4,70,68.7,103.5,102.8c16.7,17,34,34.7,51.2,51.8c14.5,14.5,21.5,28.5,21.5,42.9c0,24.1-19.7,43.8-40.6,64.5l-3.8,3.8
	c-7.3,7.4-14.5,14.8-21.8,22.2c-35.6,36.3-72.3,73.7-110,109.6c-17.4,16.2-34.4,33.2-50.8,49.8c-21.4,21.6-43.6,43.8-66.8,64.2
	c-1.5,1.3-3,2.8-4.7,4.3C305,721,292.7,732.6,279.5,732.6z"/>
</svg>
