<?xml version="1.0" encoding="utf-8"?>
<!-- Generator: Adobe Illustrator 18.0.0, SVG Export Plug-In . SVG Version: 6.00 Build 0)  -->
<!DOCTYPE svg PUBLIC "-//W3C//DTD SVG 1.1//EN" "http://www.w3.org/Graphics/SVG/1.1/DTD/svg11.dtd">
<svg version="1.1" id="Layer_1" xmlns="http://www.w3.org/2000/svg" xmlns:xlink="http://www.w3.org/1999/xlink" x="0px" y="0px"
	 viewBox="0 0 612 792" enable-background="new 0 0 612 792" xml:space="preserve">
<g>
	<path d="M538,431.5H80c-2.9,0-5.3-2.4-5.3-5.3c0-2.9,2.4-5.3,5.3-5.3h454.1l65.3-198.1h-477c-1.4,0-2.7-0.6-3.7-1.5L1.5,104.1
		c-2.1-2.1-2.1-5.4,0-7.5c2.1-2.1,5.4-2.1,7.5,0l115.6,115.6h482.1c1.7,0,3.3,0.8,4.3,2.2c1,1.4,1.3,3.1,0.7,4.7L543,427.8
		C542.3,430,540.2,431.5,538,431.5z"/>
	<path d="M35.8,547.5c-0.5,0-1.1-0.1-1.7-0.3c-2.8-0.9-4.3-3.9-3.4-6.7l38.3-116c0.9-2.8,3.9-4.3,6.7-3.4c2.8,0.9,4.3,3.9,3.4,6.7
		l-38.3,116C40,546,38,547.5,35.8,547.5z"/>
	<path d="M422,547.5H35.8c-2.9,0-5.3-2.4-5.3-5.3s2.4-5.3,5.3-5.3H422c2.9,0,5.3,2.4,5.3,5.3S424.9,547.5,422,547.5z"/>
	<path d="M129.6,696.3c-44.1,0-80-35.9-80-80c0-44.1,35.9-80,80-80s80,35.9,80,80C209.6,660.4,173.7,696.3,129.6,696.3z
		 M129.6,546.9c-38.3,0-69.5,31.2-69.5,69.5c0,38.3,31.2,69.5,69.5,69.5s69.5-31.2,69.5-69.5C199.1,578,167.9,546.9,129.6,546.9z"/>
	<path d="M422,696.9c-39.7,0-72.9-28.5-78.8-67.9c-0.4-2.9,1.6-5.6,4.4-6c2.9-0.4,5.6,1.6,6,4.4c5.1,34.1,33.9,58.9,68.3,58.9
		c38.3,0,69.5-31.2,69.5-69.5c0-38.3-31.2-69.5-69.5-69.5c-2.9,0-5.3-2.4-5.3-5.3s2.4-5.3,5.3-5.3c44.1,0,80,35.9,80,80
		S466.1,696.9,422,696.9z"/>
</g>
</svg>
