<?xml version="1.0" encoding="utf-8"?>
<!-- Generator: Adobe Illustrator 18.0.0, SVG Export Plug-In . SVG Version: 6.00 Build 0)  -->
<!DOCTYPE svg PUBLIC "-//W3C//DTD SVG 1.1//EN" "http://www.w3.org/Graphics/SVG/1.1/DTD/svg11.dtd">
<svg version="1.1" id="Layer_1" xmlns="http://www.w3.org/2000/svg" xmlns:xlink="http://www.w3.org/1999/xlink" x="0px" y="0px"
	 viewBox="0 0 612 792" enable-background="new 0 0 612 792" xml:space="preserve">
<path d="M18,682.5c-1.7,0-3.3-0.7-4.5-1.9c-1.7-1.8-2.2-4.4-1.2-6.7L66,549.1c8.7-20.3-13.1-42.5-13.3-42.7
	c-0.1-0.1-0.3-0.3-0.4-0.4C18.1,464.4,0,415.5,0,364.6C0,224,137.3,109.5,306,109.5c168.7,0,306,114.4,306,255.1
	S474.7,619.7,306,619.7c-3.4,0-6.2-2.8-6.2-6.2s2.8-6.2,6.2-6.2c161.9,0,293.7-108.9,293.7-242.8S467.9,121.8,306,121.8
	S12.3,230.7,12.3,364.6c0,48,17.1,94,49.3,133.3c2.8,2.9,27.2,29.2,15.7,56.1l-48,111.7l166.5-61.3c3.2-1.2,6.7,0.5,7.9,3.6
	c1.2,3.2-0.5,6.7-3.6,7.9L20.1,682.1C19.4,682.3,18.7,682.5,18,682.5z"/>
</svg>
